<svg version="1.1" xmlns="http://www.w3.org/2000/svg" xmlns:xlink="http://www.w3.org/1999/xlink" width="700" height="700" viewBox="610,126.5,700,700"><defs><clipPath id="clip-1"><rect x="636.18187" y="160.41309" width="647.63626" height="632.17383" id="clip-1" fill="none"/></clipPath></defs><g id="document" fill="#ffffff" fill-rule="nonzero" stroke="#000000" stroke-width="0" stroke-linecap="butt" stroke-linejoin="miter" stroke-miterlimit="10" stroke-dasharray="" stroke-dashoffset="0" font-family="none" font-weight="none" font-size="none" text-anchor="none" style="mix-blend-mode: normal"><rect x="610" y="90.35714" transform="scale(1,1.4)" width="700" height="500" id="Shape 1 1" vector-effect="non-scaling-stroke"/></g><g fill="none" fill-rule="nonzero" stroke="none" stroke-width="1" stroke-linecap="butt" stroke-linejoin="miter" stroke-miterlimit="10" stroke-dasharray="" stroke-dashoffset="0" font-family="none" font-weight="none" font-size="none" text-anchor="none" style="mix-blend-mode: normal"><g><g id="stage"><g id="layer1 1"><g clip-path="url(#clip-1)" id="Group 1"><path d="M1047.3279,302.58691h-174.50977c-8.2801,0.01007 -14.98993,6.7199 -15,15v387.85l-2,0.61005l-42.81006,13.11c-4.2245,1.28809 -8.69422,-1.08777 -9.98974,-5.31l-127.34033,-415.95005c-1.29041,-4.22481 1.08629,-8.69618 5.31006,-9.99l65.97022,-20.2l191.25,-58.54l65.96972,-20.2c2.02761,-0.62403 4.22016,-0.416 6.09423,0.57823c1.87407,0.99423 3.27576,2.693 3.89601,4.72177l32.5498,106.32z" id="Path 1" fill="#f2f2f2"/><path d="M1085.408,300.58691l-39.23,-128.14c-1.31816,-4.31197 -4.29595,-7.9233 -8.27775,-10.03893c-3.9818,-2.11562 -8.64116,-2.56208 -12.95225,-1.24107l-92.75,28.39l-191.23973,58.55002l-92.75,28.4c-8.97146,2.75482 -14.01842,12.25344 -11.28028,21.23l134.08008,437.93c2.19293,7.14371 8.78754,12.02267 16.26026,12.03c1.68482,0.00077 3.36016,-0.25206 4.96972,-0.75l63.58008,-19.46l2,-0.62v-2.09l-2,0.61l-64.16992,19.65c-7.91874,2.41386 -16.2972,-2.03706 -18.73,-9.95l-134.06983,-437.94c-1.1692,-3.80317 -0.77726,-7.91524 1.08934,-11.42906c1.8666,-3.51381 5.05449,-6.14063 8.86037,-7.30094l92.75,-28.4l191.24024,-58.54l92.75,-28.4c1.42931,-0.4362 2.91527,-0.65861 4.40966,-0.66c6.58327,0.01478 12.3891,4.31635 14.32032,10.61l39.0498,127.56l0.62012,2h2.08008z" id="Path 1" fill="#3f3d56"/><path d="M758.86279,288.23389c-3.95649,-0.00282 -7.44883,-2.58485 -8.61133,-6.3667l-12.88037,-42.07178c-0.69902,-2.28238 -0.46259,-4.74897 0.65727,-6.85701c1.11986,-2.10803 3.03138,-3.68476 5.31393,-4.38322l175.939,-53.86377c4.75231,-1.45018 9.78149,1.22116 11.24072,5.9707l12.88037,42.07227c1.44922,4.75222 -1.22177,9.78075 -5.9707,11.24072l-175.93949,53.86377c-0.852,0.26148 -1.73818,0.39461 -2.6294,0.39502z" id="Path 1" fill="#2cc899"/><circle cx="826.33538" cy="185.36774" r="20" id="Shape 1" fill="#2fc192"/><circle cx="826.33538" cy="185.36774" r="12.66462" id="Shape 1" fill="#ffffff"/><path d="M1238.81836,742.58691h-338c-4.69218,-0.00541 -8.49459,-3.80782 -8.5,-8.5v-405c0.00524,-4.69225 3.80775,-8.49476 8.5,-8.5h338c4.69218,0.00541 8.49459,3.80782 8.5,8.5v405c-0.00558,4.69211 -3.80789,8.49442 -8.5,8.5z" id="Path 1" fill="#e6e6e6"/><path d="M1083.31813,300.58691h-210.5c-9.38333,0.01328 -16.98672,7.61667 -17,17v407.8l2,-0.61v-407.19c0.01007,-8.2801 6.7199,-14.98993 15,-15h211.12012zM1266.81813,300.58691h-394c-9.38333,0.01328 -16.98672,7.61667 -17,17v458c0.01327,9.38334 7.61666,16.98673 17,17h394c9.38334,-0.01327 16.98673,-7.61666 17,-17v-458c-0.01328,-9.38333 -7.61667,-16.98672 -17,-17zM1281.81813,775.58691c-0.01007,8.2801 -6.7199,14.98993 -15,15h-394c-8.2801,-0.01007 -14.98993,-6.7199 -15,-15v-458c0.01007,-8.2801 6.7199,-14.98993 15,-15h394c8.2801,0.01007 14.98993,6.7199 15,15z" id="CompoundPath 1" fill="#3f3d56"/><path d="M1161.81836,344.58691h-184c-4.96824,-0.00559 -8.99441,-4.03176 -9,-9v-44c0.0056,-4.96824 4.03176,-8.9944 9,-9h184c4.96824,0.0056 8.9944,4.03176 9,9v44c-0.00559,4.96824 -4.03176,8.99441 -9,9z" id="Path 1" fill="#20ba8f"/><circle cx="1069.81813" cy="265.58692" r="20" id="Shape 1" fill="#28c196"/><circle cx="1069.81813" cy="265.58692" r="12.18187" id="Shape 1" fill="#ffffff"/></g></g></g></g></g></svg>