<svg version="1.1" xmlns="http://www.w3.org/2000/svg" xmlns:xlink="http://www.w3.org/1999/xlink" width="700" height="700" viewBox="610,126.5,700,700"><defs><clipPath id="clip-1"><rect x="651.87115" y="162" width="616.25771" height="629" id="clip-1" fill="none"/></clipPath></defs><g id="document" fill="#ffffff" fill-rule="nonzero" stroke="#000000" stroke-width="0" stroke-linecap="butt" stroke-linejoin="miter" stroke-miterlimit="10" stroke-dasharray="" stroke-dashoffset="0" font-family="none" font-weight="none" font-size="none" text-anchor="none" style="mix-blend-mode: normal"><rect x="610" y="90.35714" transform="scale(1,1.4)" width="700" height="500" id="Shape 1 1" vector-effect="non-scaling-stroke"/></g><g fill="none" fill-rule="nonzero" stroke="none" stroke-width="1" stroke-linecap="butt" stroke-linejoin="miter" stroke-miterlimit="10" stroke-dasharray="" stroke-dashoffset="0" font-family="none" font-weight="none" font-size="none" text-anchor="none" style="mix-blend-mode: normal"><g><g id="stage"><g id="layer1 1"><g clip-path="url(#clip-1)" id="Group 1"><path d="M786.89577,402.00218c-20.78511,-27.81539 -58.82676,-34.52842 -77.73048,-20.40256c-18.90372,14.12586 -23.24612,52.51044 -2.461,80.32582c19.23919,25.7466 54.09581,32.76833 73.29472,23.12236c-0.062,0.30118 -0.06582,0.61144 -0.01125,0.91405l1.08241,5.35123c0.16778,0.82941 0.75303,1.51281 1.54676,1.80615c0.79373,0.29334 1.68276,0.1548 2.3496,-0.36615l9.16592,-7.16078c0.66689,-0.52094 1.0165,-1.35004 0.92396,-2.19121c-0.09253,-0.84117 -0.61401,-1.57444 -1.37819,-1.93796l-4.93052,-2.34493c-0.17351,-0.07794 -0.35561,-0.13513 -0.54253,-0.17037c14.79856,-15.64516 17.97162,-51.1431 -1.3094,-76.94565z" id="Path 1" fill="#cccccc"/><path d="M741.43087,391.50043c21.11487,3.35398 35.90311,22.65861 33.64359,43.91846c-0.22342,2.345 3.44053,2.32969 3.66247,0c2.17406,-22.88789 -13.66964,-43.57973 -36.33243,-47.4501c-2.3054,-0.39188 -3.29609,3.13683 -0.97363,3.53164z" id="Path 1" fill="#ffffff"/><path d="M1264.46788,436.82783c11.18429,-32.87291 -4.7943,-68.04273 -27.1352,-75.64372c-22.3409,-7.60099 -56.45279,10.52662 -67.63708,43.39953c-10.35245,30.42794 3.57022,63.14565 22.38347,73.52373c-0.28345,0.1192 -0.54148,0.29152 -0.76019,0.50767l-3.801,3.91912c-0.58914,0.60743 -0.82176,1.4766 -0.61479,2.2971c0.20697,0.8205 0.82402,1.47534 1.63079,1.73066l11.08943,3.50934c0.80679,0.25536 1.68828,0.07477 2.32966,-0.47727c0.64138,-0.55204 0.9512,-1.39682 0.8188,-2.23264l-0.85464,-5.39243c-0.03385,-0.18717 -0.08968,-0.3697 -0.16633,-0.54378c21.2722,3.35619 52.34214,-14.10321 62.71708,-44.59731z" id="Path 1" fill="#cccccc"/><path d="M1247.41558,393.39325c9.17569,19.31045 1.61869,42.42436 -17.19235,52.58466c-2.06031,1.142 0.02452,4.155 2.07135,3.02046c20.10536,-11.15153 28.20949,-35.92043 18.58421,-56.79952c-0.98066,-2.12291 -4.4511,-0.94423 -3.46321,1.1944z" id="Path 1" fill="#ffffff"/><path d="M1001.717,222.65038c-1.51952,-34.69017 -29.1811,-61.65438 -52.757,-60.62168c-23.5759,1.0327 -48.7739,30.31227 -47.25439,65.00244c1.4065,32.11 26.26192,57.53635 47.5598,60.37238c-0.2208,0.21401 -0.39861,0.46828 -0.52387,0.74911l-2.11794,5.03206c-0.32826,0.77994 -0.22929,1.67424 0.26158,2.36352c0.49086,0.68929 1.30362,1.07527 2.14802,1.02012l11.60672,-0.75819c0.84444,-0.05512 1.60013,-0.54355 1.9972,-1.29085c0.39707,-0.7473 0.37889,-1.64691 -0.04804,-2.37756l-2.75489,-4.71374c-0.09952,-0.1621 -0.21784,-0.31188 -0.35248,-0.44623c21.03841,-4.59942 43.64489,-32.15153 42.23529,-64.33138z" id="Path 1" fill="#2ad4a9"/><path d="M970.05317,188.37585c15.5629,14.65889 16.91735,38.93904 3.0814,55.23792c-1.50481,1.81233 1.532,3.86233 3.027,2.06183c14.68184,-17.69253 13.23603,-43.71339 -3.31551,-59.67048c-1.68478,-1.62173 -4.49006,0.73697 -2.79289,2.37073z" id="Path 1" fill="#ffffff"/><circle cx="1003.62299" cy="474.48861" r="49.75204" id="Shape 1" fill="#2ecda5"/><path d="M1001.36144,789.94828h-13.72044c-3.33557,-0.00385 -6.03862,-2.7069 -6.04248,-6.04247v-114.355c0.00386,-3.33557 2.70691,-6.03862 6.04248,-6.04248h13.72039c3.33557,0.00386 6.03862,2.70691 6.04248,6.04248v114.355c-0.00386,3.33555 -2.70688,6.03859 -6.04243,6.04247z" id="Path 1" fill="#18bf96"/><path d="M1045.311,789.94828h-13.7204c-3.33557,-0.00385 -6.03862,-2.7069 -6.04248,-6.04247v-114.355c0.00386,-3.33557 2.70691,-6.03862 6.04248,-6.04248h13.7204c3.33557,0.00386 6.03861,2.70691 6.04247,6.04248v114.355c-0.00386,3.33556 -2.70691,6.03861 -6.04247,6.04247z" id="Path 1" fill="#26bf8d"/><path d="M967.0575,571.19684l-5.88573,12.39385c-1.43437,3.01142 -5.03562,4.29358 -8.05035,2.86618l-103.29861,-49.05562c-3.01142,-1.43436 -4.29358,-5.03562 -2.86618,-8.05034l5.88573,-12.39385c1.43437,-3.01142 5.03562,-4.29358 8.05035,-2.86618l103.29861,49.05561c3.01142,1.43437 4.29358,5.03562 2.86618,8.05035z" id="Path 1" fill="#28dba0"/><path d="M982.6199,577.8401c0.2918,1.40785 0.06789,2.87367 -0.63091,4.1302l-6.63111,12.01094c-1.6158,2.91818 -5.28859,3.97814 -8.21079,2.36961l-48.54242,-21.39914c-2.9183,-1.61542 -3.97793,-5.28846 -2.36853,-8.21008l-0.00009,-0.00044l12.16415,-22.75589c0.77444,-1.40299 2.07457,-2.44081 3.61429,-2.8851c1.53972,-0.44429 3.19288,-0.25864 4.59571,0.5161l43.5971,28.81919c1.41278,0.78016 1.85005,5.38769 2.29809,6.93832c0.04483,0.15484 0.08247,0.31069 0.11451,0.46629z" id="Path 1" fill="#2f2e41"/><path d="M1042.30291,563.14649l103.29861,-49.05561c3.01472,-1.4274 6.61598,-0.14524 8.05034,2.86618l5.88573,12.39385c1.4274,3.01472 0.14524,6.61598 -2.86618,8.05034l-103.29861,49.05562c-3.01472,1.4274 -6.61598,0.14524 -8.05034,-2.86618l-5.88574,-12.39385c-1.42739,-3.01473 -0.14523,-6.61598 2.86619,-8.05035z" id="Path 1" fill="#2ad4a5"/><path d="M1023.98885,577.37383c0.448,-1.55063 0.8853,-6.15816 2.29809,-6.93832l43.5971,-28.81919c1.40283,-0.77474 3.05599,-0.96039 4.59571,-0.5161c1.53972,0.44429 2.83985,1.48211 3.61429,2.8851l12.16416,22.75589l-0.00009,0.00044c1.6094,2.92162 0.54976,6.59467 -2.36854,8.21008l-48.54242,21.39914c-2.92219,1.60853 -6.59498,0.54857 -8.21078,-2.36961l-6.63112,-12.01094c-0.6988,-1.25653 -0.92271,-2.72236 -0.6309,-4.1302c0.03201,-0.15562 0.06965,-0.31147 0.1145,-0.46629z" id="Path 1" fill="#2f2e41"/><path d="M997,492.92838l-0.05175,-1.85922c3.45881,-0.09623 6.50819,-0.3132 8.79954,-1.98723c1.31446,-1.01492 2.12246,-2.5514 2.21373,-4.20958c0.0816,-1.01493 -0.31467,-2.00987 -1.07169,-2.69079c-1.52105,-1.28457 -3.96855,-0.86879 -5.75242,-0.05084l-1.53831,0.70538l2.95,-21.55809l1.842,0.25237l-2.50923,18.33805c2.08697,-0.77432 4.42417,-0.43802 6.20816,0.89329c1.19733,1.04529 1.83714,2.59024 1.7294,4.176c-0.10986,2.22874 -1.19869,4.2951 -2.97494,5.64576c-2.9441,2.15152 -6.77012,2.25866 -9.84449,2.3449z" id="Path 1" fill="#2f2e41"/><rect x="1013.50063" y="463.11181" width="10.0133" height="1.85922" id="Shape 1" fill="#2f2e41"/><rect x="981.89383" y="463.11181" width="10.0133" height="1.85922" id="Shape 1" fill="#2f2e41"/><path d="M1020.77436,547.49435h2.00589c2.18265,0.00279 4.20069,-1.16003 5.29282,-3.04979c1.09213,-1.88976 1.09213,-4.21886 0,-6.10862c-1.09213,-1.88976 -3.11018,-3.05259 -5.29282,-3.04979h-39.06625c-3.36815,0.00431 -6.0963,2.73595 -6.0963,6.10411c0,3.36816 2.72814,6.09979 6.0963,6.10411h3.66962c-31.35209,14.26417 -51.47,66.955 -51.47,99.79035c0,38.25155 27.60677,50.59031 68.16629,50.59031c40.55952,0 78.712,-12.33876 78.712,-50.59031c-0.00008,-32.83535 -28.33767,-85.52618 -62.01755,-99.79035z" id="Path 1" fill="#2f2e41"/><path d="M1001.57416,446.07481c-1.21234,-3.6838 -5.58547,-4.81453 -8.95119,-3.42481c-3.94684,1.62966 -6.18467,5.6668 -9.99652,7.57509c-6.85631,3.43241 -15.95183,1.58908 -21.17908,-3.91258c-5.71634,-6.01642 -6.84184,-15.40537 -3.96511,-23.00152c2.97511,-7.856 10.35523,-13.5421 18.25695,-15.85145c10.50009,-3.06876 21.76547,-0.25258 30.86,5.40759c0.4923,0.28027 1.08596,0.31926 1.61069,0.10578c0.52473,-0.21348 0.92256,-0.65583 1.07938,-1.20018c2.50082,-9.55493 13.28942,-12.33613 21.95775,-11.31088c8.55631,1.17811 16.69589,4.42641 23.71238,9.463c13.55242,9.455 23.10621,24.85554 24.44454,41.43544c1.30143,17.26184 -5.08463,34.21767 -17.45006,46.33216c-3.05525,2.94814 -6.61542,5.26665 -9.72978,8.13932c-2.83726,2.61708 -5.634,6.0598 -5.5774,10.13345c0.1302,9.36669 12.45573,11.95013 19.75025,12.23092c18.73191,0.83686 35.17222,-12.36543 38.3992,-30.83626c0.38889,-2.1736 0.59027,-4.37659 0.60191,-6.58467c0.01087,-2.357 -3.65158,-2.36 -3.66247,0c-0.06867,8.90129 -3.57118,17.43241 -9.777,23.81406c-6.44417,6.46444 -15.22164,10.05903 -24.349,9.97152c-5.82323,-0.02892 -21.6,-2.78986 -16.31238,-12.00145c2.06737,-3.60158 5.77738,-6.05394 8.97467,-8.56029c3.32689,-2.61423 6.34764,-5.59612 9.00473,-8.88887c10.81586,-13.35541 15.64459,-30.58041 13.34718,-47.6119c-2.36071,-16.51547 -12.37439,-31.43792 -25.99674,-40.862c-12.9697,-8.97258 -36.94232,-16.908 -48.2782,-1.36239c-1.20108,1.66385 -2.07998,3.5379 -2.59126,5.52525l2.69008,-1.0944c-8.76233,-5.45344 -19.20683,-8.28229 -29.505,-6.70452c-8.95826,1.35013 -16.96562,6.32862 -22.13974,13.76513c-4.98522,7.51579 -5.88207,17.02655 -2.38969,25.34176c3.43979,8.00978 11.23773,13.27521 19.95264,13.4727c4.62126,0.18556 9.16822,-1.20609 12.894,-3.94635c2.08647,-1.59073 3.6887,-3.8427 5.94666,-5.19748c1.29317,-0.77589 4.1999,-1.32023 4.836,0.61249c0.73343,2.22861 4.2714,1.27421 3.53163,-0.97362z" id="Path 1" fill="#2f2e41"/><path d="M1084.58579,265.27444c18.43401,1.16129 35.19409,11.08902 45.07054,26.69726c1.36448,2.1813 3.14571,4.57838 2.20115,7.26331c-0.67767,2.12004 -2.73008,3.49079 -4.948,3.30465c-2.785,-0.339 -4.58214,-3.06338 -4.92524,-5.67387c-0.38918,-2.96122 1.69991,-5.28588 4.2791,-6.38613c6.30279,-2.68851 12.66173,1.46641 17.79576,4.78239c11.69824,7.55577 24.56522,14.38891 38.74031,15.25c13.11515,0.79662 27.17915,-4.34575 34.474,-15.71911c1.27626,-1.9898 -1.89252,-3.82848 -3.16245,-1.84852c-7.23473,11.27955 -21.86021,15.33068 -34.5769,13.58729c-7.57821,-1.19587 -14.89577,-3.68025 -21.6356,-7.34549c-3.49529,-1.81394 -6.88526,-3.82475 -10.20672,-5.93854c-3.16058,-2.20537 -6.51068,-4.12585 -10.01086,-5.73884c-5.83742,-2.3979 -13.565,-2.21058 -17.64248,3.31024c-3.804,5.15056 -0.86416,13.72537 5.49824,15.17338c6.02963,1.37231 11.31193,-4.2985 10.071,-10.2278c-0.63481,-3.03305 -2.91871,-6.0012 -4.68657,-8.48033c-10.75866,-15.13478 -27.79878,-24.57592 -46.33546,-25.67233c-2.35588,-0.11653 -2.34973,3.54623 0,3.66247z" id="Path 1" fill="#cccccc"/><path d="M784.856,322.79757c-18.43401,-1.16129 -35.19409,-11.08902 -45.07054,-26.69726c-1.36448,-2.1813 -3.14571,-4.57838 -2.20115,-7.26331c0.67767,-2.12004 2.73008,-3.49079 4.948,-3.30465c2.785,0.339 4.58214,3.06338 4.92524,5.67387c0.38918,2.96122 -1.69991,5.28588 -4.2791,6.38613c-6.30279,2.68851 -12.66173,-1.46641 -17.79576,-4.78239c-11.69824,-7.55577 -24.56522,-14.38891 -38.74031,-15.25c-13.11515,-0.79662 -27.17915,4.34575 -34.474,15.71911c-1.27626,1.9898 1.89252,3.82848 3.16245,1.84852c7.23473,-11.27955 21.86021,-15.33068 34.5769,-13.58729c7.57821,1.19587 14.89577,3.68025 21.6356,7.34549c3.49529,1.81394 6.88526,3.82475 10.20672,5.93854c3.16059,2.20537 6.51069,4.12585 10.01086,5.73884c5.83742,2.3979 13.565,2.21058 17.64248,-3.31024c3.804,-5.15057 0.86416,-13.72537 -5.49824,-15.17338c-6.02963,-1.37231 -11.31193,4.2985 -10.071,10.2278c0.63481,3.03305 2.91871,6.0012 4.68657,8.48033c10.75867,15.1348 27.79881,24.57593 46.3355,25.67232c2.35588,0.11654 2.34973,-3.54622 0,-3.66246z" id="Path 1" fill="#cccccc"/><path d="M1207.21786,791h-381c-0.55228,0 -1,-0.44772 -1,-1c0,-0.55228 0.44772,-1 1,-1h381c0.55228,0 1,0.44772 1,1c0,0.55228 -0.44772,1 -1,1z" id="Path 1" fill="#3f3d56"/></g></g></g></g></g></svg>