<svg version="1.1" xmlns="http://www.w3.org/2000/svg" xmlns:xlink="http://www.w3.org/1999/xlink" width="851.034" height="700" viewBox="534.483,126.5,851.034,700"><defs><clipPath id="clip-1"><rect x="534.483" y="257.31978" width="851.034" height="438.36044" id="clip-1" fill="none"/></clipPath></defs><g id="document" fill="transparent" fill-rule="nonzero" stroke="none" stroke-width="0" stroke-linecap="butt" stroke-linejoin="miter" stroke-miterlimit="10" stroke-dasharray="" stroke-dashoffset="0" font-family="none" font-weight="none" font-size="none" text-anchor="none" style="mix-blend-mode: normal"><rect x="610" y="90.35714" transform="scale(1,1.4)" width="700" height="500" id="Shape 1 1" vector-effect="non-scaling-stroke"/></g><g fill="none" fill-rule="nonzero" stroke="none" stroke-width="1" stroke-linecap="butt" stroke-linejoin="miter" stroke-miterlimit="10" stroke-dasharray="" stroke-dashoffset="0" font-family="none" font-weight="none" font-size="none" text-anchor="none" style="mix-blend-mode: normal"><g><g id="stage"><g id="layer1 1"><g clip-path="url(#clip-1)" id="Group 1"><g id="Group 1" fill="#f2f2f2"><path d="M634.77867,618.51363c-1.05833,-0.42012 -2.40607,1.94569 -3.31497,1.52458c-0.90564,-0.41957 0.11729,-2.91454 -0.71124,-6.16955c-0.1494,-0.58701 -1.091,-4.28607 -2.6398,-4.45574c-2.93574,-0.3216 -5.47066,12.31954 -9.8577,12.21146c-0.96279,-0.02369 -2.11706,-0.66394 -5.11062,-0.83887c-1.19091,-0.06957 -1.83771,-0.01673 -2.17418,0.40931c-0.47743,0.6045 0.08708,1.43233 0.6549,3.47868c0.85156,3.06892 0.18012,3.36244 1.06422,5.65285c0.65631,1.70028 1.37106,2.4315 1.00787,2.96197c-0.51393,0.75068 -2.27703,-0.22877 -3.04385,0.57304c-0.78247,0.81823 0.00052,2.93932 0.81862,4.34836c1.53521,2.64419 3.63876,3.5468 5.41257,4.83422c1.92767,1.39912 4.36716,3.90689 6.14932,8.74773l14.26319,43.54182c-2.73788,-9.08052 -9.83021,-34.29156 -12.08901,-43.95112c-0.65205,-2.78852 -1.22895,-5.68219 0.26581,-8.15445c1.43909,-2.38024 4.62497,-4.0831 7.55063,-7.72494c0.3417,-0.4253 1.27771,-1.62135 0.89518,-2.41976c-0.31624,-0.66008 -1.24563,-0.44709 -1.55008,-1.05893c-0.40838,-0.82068 0.93233,-1.87004 1.95412,-3.96985c0.72049,-1.48068 0.91618,-2.73095 1.08444,-3.80613c0.05073,-0.32415 0.77947,-5.17547 -0.62938,-5.73471l-0.00003,0.00003z" id="Path 1"/><path d="M600.95239,673.35839c-0.51157,0.39821 0.26074,1.7423 -0.20819,2.06688c-0.46724,0.32344 -1.39664,-0.8985 -3.23327,-1.43104c-0.3312,-0.09603 -2.41843,-0.70121 -2.94858,0.01003c-1.00489,1.34808 4.46804,6.23961 3.1492,8.36163c-0.28942,0.4657 -0.93671,0.8475 -1.88629,2.26628c-0.37776,0.56443 -0.53845,0.89713 -0.42644,1.1852c0.15894,0.40873 0.72813,0.37055 1.89631,0.68228c1.75194,0.46752 1.70228,0.88178 3.08151,1.10871c1.02388,0.16846 1.589,0.02864 1.74455,0.35996c0.22016,0.46883 -0.76927,1.05157 -0.597,1.65927c0.17583,0.62013 1.44278,0.84783 2.37039,0.85285c1.74075,0.00943 2.79069,-0.76256 3.93438,-1.26169c1.24289,-0.54242 3.17761,-1.01617 6.06773,-0.49411l25.48599,5.56273c-5.24675,-1.27625 -19.66686,-5.06947 -25.05957,-6.74795c-1.55677,-0.48453 -3.14345,-1.03631 -3.92557,-2.4833c-0.75302,-1.39309 -0.66955,-3.44806 -1.61284,-5.93479c-0.11016,-0.29043 -0.42712,-1.09492 -0.92934,-1.13755c-0.41521,-0.03524 -0.57883,0.48238 -0.96698,0.45526c-0.52063,-0.03638 -0.64883,-0.99717 -1.38462,-2.10452c-0.51884,-0.78084 -1.07602,-1.23763 -1.55518,-1.63045c-0.14446,-0.11842 -2.31525,-1.87585 -2.99622,-1.34575l0.00004,0.00005z" id="Path 1"/><path d="M612.96278,667.75106l-2.44024,-2.52075l-0.02032,-0.31827c-0.09352,-1.47208 -0.48998,-2.67405 -1.17853,-3.57386c-0.10944,-0.14308 -0.22621,-0.28051 -0.34503,-0.42059c-0.47119,-0.55503 -1.05707,-1.24483 -1.32816,-2.36706c-0.14993,-0.62657 -0.39378,-2.15699 0.59253,-2.70599c0.26357,-0.15037 0.52783,-0.18004 0.76318,-0.1576c-0.0047,-0.04741 -0.00875,-0.09534 -0.01352,-0.14696c-0.049,-0.63221 0.02994,-0.98032 0.10603,-1.31562c0.05832,-0.25776 0.1189,-0.52362 0.12896,-1.05043c0.00448,-0.23106 -0.00297,-0.42526 -0.00898,-0.58866c-0.01741,-0.49493 -0.01224,-1.10518 0.51922,-1.50498c0.58287,-0.40759 1.23646,-0.16999 1.66937,-0.01295c0.77239,0.27987 1.2359,0.55368 1.54322,0.73538c0.11208,0.06661 0.23873,0.14109 0.28644,0.15742c0.38702,0.12654 1.66761,-1.26023 2.15258,-1.77942c1.08597,-1.17052 2.02567,-2.18339 3.07717,-1.74044c0.75271,0.31634 1.09039,1.2425 1.02824,2.82843c-0.01963,0.49378 -0.11083,0.92793 -0.21011,1.28966c0.28709,-0.03452 0.60187,0.00953 0.89134,0.23694v0c0.68445,0.53922 0.62711,1.65347 -0.16773,3.31388c-0.19655,0.41342 -0.46282,0.96793 -0.99112,1.54397c-0.24907,0.27106 -0.4983,0.48268 -0.71433,0.66016c0.09411,0.13152 0.17116,0.29324 0.20332,0.496c0.09562,0.5962 -0.22569,1.16341 -0.97961,1.66907c-0.82071,0.56788 -1.58654,0.91897 -2.26137,1.22954c-0.58882,0.27181 -1.09499,0.50744 -1.41593,0.79145c-0.58847,0.53529 -0.68421,1.41118 -0.74862,2.50109l-0.13797,2.75058h-0.00002z" id="Path 1"/><path d="M601.70809,650.21363l-1.81935,2.99982l-0.30271,0.10038c-1.40023,0.46385 -2.46231,1.15222 -3.15804,2.04649c-0.11064,0.14216 -0.21396,0.28996 -0.31932,0.44044c-0.41736,0.59655 -0.936,1.33827 -1.95276,1.88513c-0.56806,0.30398 -1.98656,0.92802 -2.76779,0.11323c-0.21229,-0.21681 -0.30803,-0.4649 -0.34601,-0.69826c-0.04467,0.01659 -0.09,0.03266 -0.13872,0.05037c-0.59911,0.20774 -0.95587,0.2197 -1.2995,0.23115c-0.26413,0.00896 -0.53666,0.01781 -1.04879,0.14169c-0.22464,0.05428 -0.41059,0.11075 -0.56713,0.158c-0.47432,0.1424 -1.06594,0.29215 -1.58746,-0.12052c-0.54211,-0.46042 -0.47805,-1.15291 -0.43597,-1.6115c0.07481,-0.81812 0.22207,-1.33593 0.31989,-1.67928c0.036,-0.12529 0.07592,-0.26671 0.07963,-0.317c0.02423,-0.40645 -1.64199,-1.29342 -2.26721,-1.63084c-1.40769,-0.75354 -2.62579,-1.40559 -2.46403,-2.53507c0.11508,-0.80832 0.92529,-1.36989 2.47512,-1.71205c0.48261,-0.10625 0.9257,-0.12817 1.30078,-0.12388c-0.10621,-0.26894 -0.14347,-0.58461 0.00312,-0.92228v0c0.34798,-0.79884 1.44032,-1.026 3.24804,-0.67832c0.44975,0.08525 1.05367,0.20217 1.74487,0.56707c0.32536,0.17217 0.59328,0.35957 0.81977,0.52353c0.10335,-0.1244 0.24023,-0.23994 0.42822,-0.32248c0.55244,-0.24372 1.18263,-0.07679 1.86296,0.5242c0.75749,0.64983 1.29134,1.30156 1.76292,1.87554c0.41228,0.50063 0.76857,0.93048 1.12473,1.16887c0.66706,0.43344 1.53856,0.30389 2.60919,0.08973l2.69562,-0.56423l-0.00005,0.00007z" id="Path 1"/><path d="M593.99578,643.19155l-2.44024,-2.52075l-0.02032,-0.31827c-0.09352,-1.47208 -0.48998,-2.67405 -1.17853,-3.57386c-0.10944,-0.14308 -0.22621,-0.28051 -0.34503,-0.42059c-0.47119,-0.55503 -1.05707,-1.24483 -1.32816,-2.36706c-0.14993,-0.62657 -0.39378,-2.15699 0.59253,-2.70599c0.26357,-0.15037 0.52783,-0.18004 0.76318,-0.1576c-0.0047,-0.04741 -0.00875,-0.09534 -0.01352,-0.14696c-0.049,-0.63221 0.02994,-0.98032 0.10603,-1.31562c0.05832,-0.25776 0.1189,-0.52362 0.12896,-1.05043c0.00448,-0.23106 -0.00297,-0.42526 -0.00898,-0.58866c-0.01741,-0.49493 -0.01224,-1.10518 0.51922,-1.50498c0.58287,-0.40759 1.23646,-0.16999 1.66937,-0.01295c0.77239,0.27987 1.2359,0.55368 1.54322,0.73538c0.11208,0.06661 0.23873,0.14109 0.28644,0.15742c0.38702,0.12654 1.66761,-1.26023 2.15258,-1.77942c1.08597,-1.17052 2.02567,-2.18339 3.07717,-1.74044c0.75271,0.31634 1.09039,1.2425 1.02824,2.82843c-0.01963,0.49378 -0.11083,0.92793 -0.21011,1.28966c0.28709,-0.03452 0.60187,0.00953 0.89134,0.23694v0c0.68445,0.53922 0.62711,1.65347 -0.16773,3.31388c-0.19655,0.41342 -0.46282,0.96793 -0.99112,1.54397c-0.24907,0.27106 -0.4983,0.48268 -0.71433,0.66016c0.09411,0.13152 0.17116,0.29324 0.20332,0.496c0.09562,0.5962 -0.22569,1.16341 -0.97961,1.66907c-0.82071,0.56788 -1.58654,0.91897 -2.26137,1.22954c-0.58882,0.27181 -1.09499,0.50744 -1.41593,0.79145c-0.58847,0.53529 -0.68421,1.41118 -0.74862,2.50109l-0.13797,2.75058h-0.00002z" id="Path 1"/><path d="M638.18605,694.57509l-0.85819,0.08418l-0.65545,-0.5595l0.65545,0.5595l-0.61453,0.59797c-0.05903,-0.05439 -0.20681,-0.17 -0.436,-0.35249c-1.25467,-1.00076 -5.07452,-4.04504 -10.40882,-9.36567c-3.72357,-3.71422 -7.30414,-7.72393 -10.64422,-11.91939c-3.34521,-4.20211 -5.62912,-7.57535 -7.46522,-10.28611c-1.38458,-2.04484 -2.67112,-4.01649 -3.92333,-5.93811c-3.3469,-5.13251 -6.50895,-9.98021 -10.68422,-14.82607c-0.93154,-1.08228 -2.87164,-3.33411 -6.17449,-4.77388c-1.91572,-0.83485 -4.00634,-1.27509 -6.21311,-1.30658l0.02482,-1.72512c2.43716,0.03648 4.75141,0.52528 6.87856,1.4521c3.66201,1.59632 5.77603,4.04995 6.79176,5.22886c4.24888,4.93154 7.4409,9.82631 10.81981,15.00853c1.24836,1.91393 2.52875,3.87758 3.90782,5.91391c1.81893,2.68577 4.08321,6.02945 7.38558,10.17745c3.29964,4.14584 6.83674,8.10617 10.51286,11.7741c5.26735,5.25323 9.03066,8.25183 10.26692,9.23703c0.65971,0.52645 0.79796,0.63663 0.83401,1.01934v-0.00002z" id="Path 1"/><path d="M579.93585,640.58932c-0.05596,0.04322 -0.11362,0.08562 -0.174,0.12586c-1.21026,0.83469 -2.82334,0.97009 -4.79454,0.40356c-0.92577,-0.26778 -1.69858,-0.79195 -3.23979,-1.83733c-0.23799,-0.16081 -1.43029,-0.98851 -2.80464,-2.33292c-0.89837,-0.87817 -1.199,-1.30327 -1.28472,-1.81778c-0.0963,-0.57228 0.03598,-1.12539 0.28323,-1.62051c-0.11816,-0.11721 -0.20812,-0.26258 -0.25747,-0.44357c-0.20688,-0.74851 0.46899,-1.15135 0.83122,-1.37367c0.18568,-0.10937 0.41848,-0.24448 0.63707,-0.43245c0.34505,-0.29412 0.45527,-0.54943 0.62357,-0.93467c0.16081,-0.36882 0.36075,-0.82741 0.79446,-1.33039c0.85171,-0.99597 1.92473,-1.3652 2.27827,-1.48721c1.85538,-0.64797 3.46889,-0.06259 5.33692,0.6155c0.37369,0.13683 1.69909,0.66179 3.10647,1.69778c1.01538,0.74738 1.30604,1.2036 1.46833,1.58452c0.33531,0.78122 0.22704,1.46043 -0.14368,3.06132c-0.38551,1.67399 -0.57975,2.5132 -0.83007,3.12555c-0.58435,1.42339 -0.95126,2.31723 -1.83066,2.99638z" id="Path 1"/></g><g id="Group 1" fill="#f2f2f2"><path d="M636.48715,540.62954l19.95029,33.02116l116.26202,-6.87941l-30.95735,-39.90057z" id="Path 1"/><path d="M671.22649,695.07228c-0.67719,0 -1.26705,-0.49983 -1.36144,-1.18912l-34.74102,-253.72861c-0.10312,-0.75311 0.42358,-1.44709 1.17635,-1.54988c0.75244,-0.10883 1.44642,0.42324 1.54988,1.17635l34.74102,253.72861c0.10312,0.75311 -0.42358,1.44709 -1.17635,1.54988c-0.06349,0.00873 -0.1263,0.01276 -0.18844,0.01276z" id="Path 1"/><path d="M636.48715,695.39475c-0.75983,0 -1.37588,-0.61606 -1.37588,-1.37588v-254.00204c0,-0.75983 0.61606,-1.37588 1.37588,-1.37588c0.75982,0 1.37588,0.61606 1.37588,1.37588v254.00204c0,0.75983 -0.61606,1.37588 -1.37588,1.37588z" id="Path 1"/><path d="M810.87984,694.38501c-0.58482,0 -1.12731,-0.37622 -1.31206,-0.96339l-82.20894,-261.29595c-0.22808,-0.72489 0.17467,-1.49748 0.89956,-1.7259c0.72455,-0.22707 1.49748,0.17534 1.72523,0.89956l82.20894,261.29596c0.22808,0.72489 -0.17467,1.49748 -0.89956,1.7259c-0.13739,0.043 -0.27645,0.06382 -0.41317,0.06382z" id="Path 1"/><path d="M785.76933,694.70681c-0.61438,0 -1.174,-0.41384 -1.33255,-1.03661l-57.0991,-230.61205c-0.1871,-0.73631 0.25798,-1.48539 0.99429,-1.67283c0.73866,-0.18609 1.48539,0.25798 1.67283,0.99429l57.0991,230.61205c0.1871,0.73631 -0.25798,1.48539 -0.99429,1.67283c-0.11387,0.02889 -0.22808,0.04232 -0.34028,0.04232z" id="Path 1"/><path d="M636.48715,444.06321l95.27982,-1.46526l17.54249,100.09541h-111.44643z" id="Path 1"/></g><rect x="534.483" y="693.99722" width="851.034" height="1.683" id="Shape 1" fill="#e6e6e6"/><g id="Group 1"><path d="M708.97477,334.69461c2.88688,1.62224 7.54592,-4.79431 8.60179,-1.6557c1.05587,3.13861 -1.50141,15.80272 -2.82076,18.83999c-0.65579,1.50969 -1.5828,2.89045 -2.22626,4.40544c-0.64346,1.51499 -0.98852,3.25691 -0.41975,4.80149c0.98981,2.688 4.25649,3.78145 5.87617,6.14402c1.88643,2.75164 1.12452,6.45781 0.24264,9.67533c-0.76012,2.77329 -1.57013,5.57168 -3.03332,8.04716c-1.46319,2.47548 -3.66915,4.63094 -6.42562,5.44998c-3.50958,1.04281 -7.26054,-0.19648 -10.64388,-1.59562c-3.25282,-1.34516 -6.47081,-2.87008 -9.23742,-5.04636c-2.76661,-2.17627 -5.07503,-5.06492 -6.04214,-8.44945c-1.21311,-4.24546 -0.19963,-8.89156 1.90078,-12.77535c2.10041,-3.88379 5.20749,-7.11935 8.3956,-10.1741c5.36944,-5.14483 11.08356,-9.92987 17.09134,-14.3124" id="Path 1" fill="#2f2e41"/><path d="M726.89268,487.10289l77.03703,29.18069c0,0 6.41975,6.41975 7.58698,17.50842c1.16723,11.08866 22.76094,74.11896 22.76094,74.11896l-18.67564,7.00337c0,0 -31.51515,-48.43995 -29.76431,-68.28282c0,0 -3.50168,-9.3562 -5.25252,-9.63882c-1.75084,-0.28262 -28.01347,-13.70574 -44.93827,-11.95489c-16.9248,1.75084 -61.27946,7.00337 -62.44669,-13.42312c-1.16723,-20.42649 9.06899,-20.42649 9.06899,-20.42649z" id="Path 1" fill="#2f2e41"/><path d="M830.19234,602.65844c0,0 5.25252,-1.75084 8.75421,1.75084c3.50168,3.50168 3.50168,6.41975 3.50168,6.41975c0,0 27.42985,-0.58361 28.59708,2.91807c1.16723,3.50168 -2.91807,17.50842 -12.83951,18.09203c-9.92144,0.58361 -43.77104,7.58698 -43.77104,1.16723c0,-6.41975 0.58361,-21.0101 2.91807,-21.0101c2.33446,0 12.83951,-9.33782 12.83951,-9.33782z" id="Path 1" fill="#2f2e41"/><path d="M733.54701,505.66452l56.14772,60.27977c0,0 2.91284,8.59894 -0.95136,19.05785c-3.8642,10.45891 -12.41709,76.53429 -12.41709,76.53429l-19.84592,-1.99155c0,0 -6.80406,-57.38762 3.55334,-74.40317c0,0 1.00391,-9.93944 -0.44072,-10.96821c-1.44463,-1.02877 -19.04689,-24.69448 -34.99689,-30.62002c-15.95,-5.92553 -58.0441,-20.85908 -50.04455,-39.6902c7.99955,-18.83112 17.17725,-14.2979 17.17725,-14.2979l41.81822,16.09913z" id="Path 1" fill="#2f2e41"/><path d="M774.98956,655.01785c0,0 5.48474,0.75635 7.07356,5.44668c1.58882,4.69033 0.29652,7.30665 0.29652,7.30665c0,0 24.85181,11.62433 24.34758,15.28082c-0.50423,3.65649 -10.37009,14.40559 -19.52402,10.53504c-9.15393,-3.87055 -42.60468,-12.58204 -39.76163,-18.33793c2.84305,-5.75589 9.8278,-18.579 11.92085,-17.54516c2.09305,1.03384 15.64713,-2.6861 15.64713,-2.6861z" id="Path 1" fill="#2f2e41"/><path d="M682.24622,381.76058l18.67564,12.25589l21.0101,32.09876c0,0 4.66891,33.84961 2.91807,35.60045c-1.75084,1.75084 -1.16723,3.50168 -1.16723,7.00337c0,3.50168 4.28738,3.87391 1.56008,6.89767c-2.7273,3.02376 -5.01581,3.65333 -0.95349,4.79758c4.06232,1.14425 8.78178,0.02757 6.42205,3.50398c-2.35973,3.47641 -0.60889,4.64364 -1.77612,5.81086c-1.16723,1.16723 -48.41546,51.06764 -57.16967,31.80838c-8.75421,-19.25926 -9.36231,-93.08784 -9.36231,-93.08784l6.30653,-24.05054l13.53634,-22.63857z" id="Path 1" fill="#cccccc"/><g id="Group 1"><path d="M624.70442,519.25708c-1.98718,6.71983 -0.1307,13.19215 4.14605,14.4561c4.27675,1.26395 9.35332,-3.15879 11.34031,-9.88129c0.83055,-2.67447 1.00855,-5.50896 0.51908,-8.26632l8.0602,-28.57854l-13.49169,-3.49656l-6.51354,28.5446c-1.91082,2.04852 -3.30315,4.52495 -4.06041,7.222z" id="Path 1" fill="#ffb6b6"/><path d="M701.54389,422.34647c0,0 -21.7521,-16.60571 -30.03239,-6.1334c-8.28029,10.47231 -38.61292,56.96303 -38.61292,56.96303l-2.0108,17.71709l17.20293,3.79641l27.80483,-40.97133z" id="Path 1" fill="#cccccc"/></g><g id="Group 1"><path d="M810.89981,357.8134c4.98824,-4.92164 6.49218,-11.48483 3.35949,-14.65887c-3.13269,-3.17403 -9.71475,-1.75677 -14.7041,3.1673c-2.02002,1.93962 -3.54617,4.3348 -4.45075,6.98515l-20.87201,21.12011l10.11982,9.58337l19.5017,-21.83814c2.66304,-0.86942 5.07908,-2.3641 7.04585,-4.35892z" id="Path 1" fill="#ffb6b6"/><path d="M696.78515,405.49795c0,0 11.0131,25.05225 23.32428,19.88821c12.31118,-5.16403 61.33951,-31.1963 61.33951,-31.1963l10.32556,-14.5369l-13.22356,-11.64005l-44.14721,22.42281l-37.61858,15.06222z" id="Path 1" fill="#cccccc"/></g><circle cx="701.76375" cy="355.83398" r="20.94683" id="Shape 1" fill="#ffb6b6"/><path d="M678.15057,388.63955c4.88906,6.97414 7.3893,15.59107 6.99243,24.09896c5.54321,-2.6852 9.28443,-8.35845 10.55777,-14.38473c1.27334,-6.02628 0.30192,-12.35385 -1.74425,-18.16338c-0.02046,-0.0581 -0.04103,-0.11615 -0.06169,-0.17416c-3.1068,-8.72001 -0.22002,-18.46594 7.28383,-23.88657c5.06154,-3.65635 9.45134,-8.24347 12.82059,-13.50156c1.90209,-2.96842 3.51879,-6.69212 2.09785,-9.91863c-1.30935,-2.9731 -4.69185,-4.36269 -7.8046,-5.29247c-7.10777,-2.1231 -14.65986,-3.33118 -21.95528,-1.98774c-7.29542,1.34344 -14.31845,5.53885 -17.76637,12.10694c-3.44792,6.56809 -2.54469,15.53189 3.05171,20.40101c-1.76509,0.57069 -3.01395,2.44158 -2.86403,4.29057c0.14992,1.84899 1.68387,3.49425 3.51784,3.77312c-1.19654,-0.04242 -1.90285,1.53349 -1.47616,2.65217c0.4267,1.11868 1.52711,1.81357 2.57686,2.38938c1.49528,0.8202 3.1528,1.67786 3.15919,3.82572c0.00256,0.86122 -0.30451,1.69704 -0.80627,2.397c-1.21594,1.69623 -3.17911,2.46012 -5.0689,3.17729c3.99703,1.17722 7.18431,4.74974 7.89982,8.85463" id="Path 1" fill="#2f2e41"/></g><g id="Group 1"><circle cx="852.02829" cy="320.13529" r="62.80556" id="Shape 1" fill="#3ec4a4"/><g id="Group 1" fill="#ffffff"><rect x="-210.91736" y="890.23607" transform="rotate(-80.4292)" width="36.06682" height="6.32134" id="Shape 1"/><path d="M872.02065,342.35671l-21.42936,-13.69865l-24.7364,5.9145l32.30912,-50.82629z" id="Path 1"/></g></g><g id="Group 1" fill="#f2f2f2"><path d="M1248.02774,626.62045c0.92646,-0.36777 2.10628,1.70326 2.90193,1.33462c0.7928,-0.36729 -0.10268,-2.5514 0.62262,-5.40083c0.13079,-0.51387 0.95506,-3.75204 2.31089,-3.90056c2.56995,-0.28153 4.78903,10.78455 8.62945,10.68993c0.84283,-0.02074 1.85328,-0.58122 4.47385,-0.73434c1.04252,-0.0609 1.60874,-0.01464 1.90328,0.35831c0.41794,0.52918 -0.07623,1.25386 -0.5733,3.04525c-0.74546,2.68653 -0.15768,2.94348 -0.93162,4.94852c-0.57454,1.48843 -1.20023,2.12854 -0.88229,2.59291c0.4499,0.65715 1.99331,-0.20027 2.66459,0.50164c0.68498,0.71628 -0.00045,2.57308 -0.71662,3.80656c-1.34392,2.31472 -3.18537,3.10487 -4.73818,4.23189c-1.68748,1.22479 -3.82302,3.4201 -5.38312,7.65778l-12.48602,38.11658c2.39675,-7.9491 8.60538,-30.01889 10.58274,-38.47489c0.57081,-2.44108 1.07583,-4.9742 -0.23269,-7.13842c-1.25978,-2.08367 -4.0487,-3.57435 -6.60984,-6.76242c-0.29913,-0.37231 -1.11851,-1.41933 -0.78364,-2.11826c0.27683,-0.57784 1.09043,-0.39138 1.35694,-0.92698c0.3575,-0.71842 -0.81616,-1.63704 -1.71064,-3.47521c-0.63072,-1.29619 -0.80203,-2.39068 -0.94932,-3.3319c-0.04441,-0.28376 -0.68235,-4.53062 0.55096,-5.02018l0.00003,0.00002z" id="Path 1"/><path d="M1277.63934,674.63164c0.44783,0.34859 -0.22825,1.52521 0.18225,1.80935c0.40902,0.28314 1.22262,-0.78655 2.83041,-1.25274c0.28994,-0.08407 2.1171,-0.61384 2.58119,0.00878c0.87968,1.18011 -3.91133,5.46217 -2.75681,7.31978c0.25336,0.40767 0.82,0.74191 1.65126,1.98391c0.33069,0.4941 0.47136,0.78535 0.3733,1.03753c-0.13914,0.3578 -0.6374,0.32438 -1.66003,0.59727c-1.53365,0.40927 -1.49017,0.77191 -2.69755,0.97057c-0.8963,0.14747 -1.39101,0.02507 -1.52718,0.31511c-0.19273,0.41042 0.67342,0.92055 0.52261,1.45253c-0.15392,0.54286 -1.26301,0.74219 -2.07504,0.74659c-1.52386,0.00826 -2.44297,-0.66755 -3.44416,-1.10448c-1.08802,-0.47484 -2.78168,-0.88956 -5.3117,-0.43255l-22.31048,4.86963c4.59302,-1.11723 17.2164,-4.43783 21.93719,-5.90717c1.3628,-0.42416 2.75178,-0.90719 3.43645,-2.17389c0.65919,-1.21952 0.58613,-3.01844 1.41189,-5.19532c0.09643,-0.25425 0.3739,-0.9585 0.81355,-0.99582c0.36348,-0.03085 0.50671,0.42228 0.84649,0.39853c0.45576,-0.03184 0.56798,-0.87293 1.2121,-1.8423c0.45419,-0.68355 0.94195,-1.08342 1.36141,-1.4273c0.12646,-0.10367 2.02678,-1.64212 2.6229,-1.17807l-0.00003,0.00004z" id="Path 1"/><path d="M1267.12541,669.72298l2.13619,-2.20667l0.01779,-0.27861c0.08186,-1.28867 0.42893,-2.34087 1.03168,-3.12857c0.0958,-0.12525 0.19803,-0.24556 0.30204,-0.36819c0.41248,-0.48587 0.92536,-1.08973 1.16268,-2.07213c0.13125,-0.5485 0.34472,-1.88824 -0.5187,-2.36883c-0.23073,-0.13163 -0.46206,-0.15761 -0.66809,-0.13796c0.00411,-0.0415 0.00766,-0.08346 0.01184,-0.12865c0.04289,-0.55344 -0.02621,-0.85818 -0.09281,-1.15169c-0.05106,-0.22564 -0.10408,-0.45838 -0.11289,-0.91955c-0.00392,-0.20227 0.0026,-0.37227 0.00786,-0.51532c0.01524,-0.43326 0.01071,-0.96748 -0.45453,-1.31746c-0.51024,-0.35681 -1.0824,-0.14881 -1.46137,-0.01134c-0.67615,0.24499 -1.08191,0.48469 -1.35093,0.64375c-0.09811,0.05831 -0.20898,0.12351 -0.25075,0.13781c-0.3388,0.11077 -1.45983,-1.10321 -1.88437,-1.5577c-0.95066,-1.02468 -1.77327,-1.91134 -2.69376,-1.52358c-0.65892,0.27693 -0.95453,1.08768 -0.90013,2.47601c0.01719,0.43225 0.09702,0.81231 0.18393,1.12897c-0.25132,-0.03022 -0.52687,0.00834 -0.78028,0.20742v0c-0.59917,0.47203 -0.54897,1.44745 0.14684,2.90098c0.17206,0.36191 0.40515,0.84733 0.86763,1.3516c0.21803,0.23728 0.43621,0.42254 0.62532,0.5779c-0.08239,0.11513 -0.14983,0.25671 -0.17798,0.4342c-0.08371,0.52192 0.19757,1.01845 0.85755,1.4611c0.71845,0.49712 1.38886,0.80446 1.97961,1.07634c0.51545,0.23794 0.95856,0.44421 1.23951,0.69284c0.51515,0.4686 0.59896,1.23535 0.65535,2.18946l0.12078,2.40787h0.00001z" id="Path 1"/><path d="M1276.97779,654.37068l1.59267,2.62605l0.26499,0.08787c1.22576,0.40605 2.15551,1.00865 2.76455,1.7915c0.09686,0.12445 0.1873,0.25384 0.27954,0.38556c0.36536,0.52222 0.81937,1.17152 1.70945,1.65025c0.49728,0.2661 1.73904,0.81239 2.42293,0.09912c0.18584,-0.18979 0.26965,-0.40698 0.3029,-0.61125c0.0391,0.01452 0.07879,0.02859 0.12144,0.04409c0.52447,0.18186 0.83677,0.19232 1.13759,0.20235c0.23122,0.00784 0.4698,0.01559 0.91811,0.12404c0.19665,0.04752 0.35943,0.09695 0.49647,0.13832c0.41522,0.12466 0.93312,0.25575 1.38967,-0.10551c0.47456,-0.40305 0.41849,-1.00926 0.38165,-1.41071c-0.06549,-0.71619 -0.1944,-1.16947 -0.28003,-1.47004c-0.03152,-0.10968 -0.06646,-0.23347 -0.06971,-0.2775c-0.02121,-0.35581 1.4374,-1.13226 1.98472,-1.42764c1.23229,-0.65965 2.29862,-1.23045 2.15701,-2.2192c-0.10074,-0.70761 -0.81,-1.1992 -2.16672,-1.49873c-0.42247,-0.09301 -0.81036,-0.1122 -1.1387,-0.10844c0.09298,-0.23543 0.12559,-0.51177 -0.00273,-0.80737v0c-0.30462,-0.69931 -1.26086,-0.89816 -2.84334,-0.5938c-0.39371,0.07463 -0.92239,0.17698 -1.52746,0.49642c-0.28482,0.15072 -0.51935,0.31477 -0.71763,0.4583c-0.09047,-0.1089 -0.2103,-0.21004 -0.37486,-0.2823c-0.48361,-0.21335 -1.03527,-0.06723 -1.63084,0.45889c-0.6631,0.56886 -1.13044,1.13939 -1.54327,1.64185c-0.36091,0.43825 -0.67281,0.81454 -0.98459,1.02323c-0.58395,0.37944 -1.34686,0.26603 -2.28409,0.07855l-2.35975,-0.49393l0.00005,0.00006z" id="Path 1"/><path d="M1283.72916,648.22354l2.13619,-2.20667l0.01779,-0.27861c0.08186,-1.28867 0.42893,-2.34087 1.03168,-3.12857c0.0958,-0.12525 0.19803,-0.24556 0.30204,-0.36819c0.41248,-0.48587 0.92536,-1.08973 1.16268,-2.07213c0.13125,-0.5485 0.34472,-1.88824 -0.5187,-2.36883c-0.23073,-0.13163 -0.46206,-0.15761 -0.66809,-0.13796c0.00411,-0.0415 0.00766,-0.08346 0.01184,-0.12865c0.04289,-0.55344 -0.02621,-0.85818 -0.09281,-1.15169c-0.05106,-0.22564 -0.10408,-0.45838 -0.11289,-0.91955c-0.00392,-0.20227 0.0026,-0.37227 0.00786,-0.51532c0.01524,-0.43326 0.01071,-0.96748 -0.45453,-1.31746c-0.51024,-0.35681 -1.0824,-0.14881 -1.46137,-0.01134c-0.67615,0.24499 -1.08191,0.48469 -1.35093,0.64375c-0.09811,0.05831 -0.20898,0.12351 -0.25075,0.13781c-0.3388,0.11077 -1.45983,-1.10321 -1.88437,-1.5577c-0.95066,-1.02468 -1.77327,-1.91134 -2.69376,-1.52358c-0.65892,0.27693 -0.95453,1.08768 -0.90013,2.47601c0.01719,0.43225 0.09702,0.81231 0.18393,1.12897c-0.25132,-0.03022 -0.52687,0.00834 -0.78028,0.20742v0c-0.59917,0.47203 -0.54897,1.44745 0.14684,2.90098c0.17206,0.36191 0.40515,0.84733 0.86763,1.3516c0.21803,0.23728 0.43621,0.42254 0.62532,0.5779c-0.08239,0.11513 -0.14983,0.25671 -0.17798,0.4342c-0.08371,0.52192 0.19757,1.01845 0.85755,1.4611c0.71845,0.49712 1.38886,0.80446 1.97961,1.07634c0.51545,0.23794 0.95856,0.44421 1.23951,0.69284c0.51515,0.4686 0.59896,1.23535 0.65535,2.18946l0.12078,2.40787h0.00001z" id="Path 1"/><path d="M1245.04492,693.20478l0.75126,0.07369l0.57378,-0.48979l-0.57378,0.48979l0.53796,0.52346c0.05168,-0.04761 0.18104,-0.14882 0.38167,-0.30857c1.09834,-0.87607 4.44224,-3.54104 9.1119,-8.19873c3.25962,-3.25144 6.39406,-6.76154 9.31797,-10.43426c2.9284,-3.67853 4.92774,-6.63147 6.53507,-9.00448c1.21206,-1.79005 2.33831,-3.51604 3.43449,-5.19823c2.92989,-4.49301 5.69794,-8.73669 9.35299,-12.97877c0.81547,-0.94743 2.51384,-2.91868 5.40516,-4.17907c1.67703,-0.73083 3.50716,-1.11622 5.43896,-1.14378l-0.02173,-1.51018c-2.13349,0.03194 -4.15939,0.45983 -6.02151,1.27117c-3.20573,1.39742 -5.05635,3.54534 -5.94552,4.57735c-3.71947,4.31708 -6.51378,8.60196 -9.47168,13.13849c-1.09281,1.67546 -2.21367,3.39444 -3.42091,5.17704c-1.59229,2.35113 -3.57445,5.27819 -6.46535,8.90936c-2.88851,3.62928 -5.98489,7.09616 -9.20297,10.30706c-4.61104,4.59869 -7.90546,7.22367 -8.98768,8.08611c-0.57751,0.46085 -0.69854,0.55731 -0.7301,0.89233h0.00001z" id="Path 1"/><path d="M1296.03725,645.94554c0.04899,0.03783 0.09946,0.07495 0.15232,0.11018c1.05946,0.73069 2.47156,0.84922 4.19714,0.35327c0.81042,-0.23442 1.48694,-0.69328 2.83612,-1.6084c0.20833,-0.14077 1.25208,-0.86535 2.45519,-2.04224c0.78643,-0.76875 1.04961,-1.14088 1.12465,-1.59129c0.0843,-0.50098 -0.0315,-0.98517 -0.24794,-1.4186c0.10344,-0.10261 0.18219,-0.22986 0.22539,-0.3883c0.18111,-0.65525 -0.41056,-1.0079 -0.72765,-1.20251c-0.16255,-0.09574 -0.36634,-0.21402 -0.55769,-0.37857c-0.30206,-0.25747 -0.39854,-0.48097 -0.54588,-0.81821c-0.14077,-0.32286 -0.3158,-0.72431 -0.69547,-1.16463c-0.74559,-0.87188 -1.68492,-1.19509 -1.9944,-1.30191c-1.6242,-0.56724 -3.03667,-0.05479 -4.67195,0.53881c-0.32713,0.11978 -1.48739,0.57933 -2.71941,1.48624c-0.88887,0.65426 -1.14331,1.05363 -1.28538,1.38709c-0.29353,0.68388 -0.19875,1.27846 0.12578,2.67988c0.33748,1.46541 0.50751,2.20006 0.72664,2.73612c0.51154,1.24604 0.83273,2.02851 1.60256,2.62304z" id="Path 1"/></g><g id="Group 1"><path d="M1050.98611,685.54449l-13.28911,-3.07709l5.5421,-52.72292l19.61361,4.54098z" id="Path 1" fill="#a0616a"/><path d="M1005.52469,674.70494v0c-0.57508,0.60112 -1.314,2.79985 -1.50157,3.61027v0c-0.57655,2.49104 0.97542,4.97785 3.46654,5.55442l41.15575,9.52541c1.69937,0.39332 3.39591,-0.66543 3.78925,-2.36489l0.39657,-1.71345c0,0 3.22784,-4.67858 0.50531,-11.99613c0,0 -6.35996,3.76436 -12.34278,-5.82189l-1.33308,-4.68995l-19.42965,8.30682l-9.4729,-0.99803c-2.07247,-0.21837 -3.79271,-0.91837 -5.23328,0.58744l-0.00016,-0.00004z" id="Path 1" fill="#2f2e41"/></g><g id="Group 1"><path d="M1190.43898,657.12693l-9.87919,9.40587l-40.98308,-33.62749l14.5804,-13.88259z" id="Path 1" fill="#a0616a"/><path d="M1156.38136,689.13184v0c0.18572,0.81091 1.61555,2.63737 2.1892,3.23978v0c1.76327,1.85164 4.69375,1.92334 6.54545,0.16001l30.59189,-29.13187c1.26318,-1.20289 1.31211,-3.20209 0.10916,-4.46533l-1.21285,-1.27364c0,0 -2.1319,-5.26907 -9.7406,-7.0202c0,0 -0.35436,7.382 -11.651,7.10584l-4.65003,-1.46628l-3.74941,20.79559l-6.04385,7.36232c-1.32229,1.61071 -2.85306,2.66234 -2.38784,4.69366l-0.00012,0.00011z" id="Path 1" fill="#2f2e41"/></g><g id="Group 1" fill="#f2f2f2"><path d="M1246.53214,558.44058l-17.46451,28.90678l-101.77597,-6.02224l27.10011,-34.92903z" id="Path 1"/><path d="M1216.12127,693.64002c0.59281,0 1.10918,-0.43755 1.1918,-1.04095l30.41235,-222.11445c0.09027,-0.65927 -0.3708,-1.26679 -1.02978,-1.35677c-0.65868,-0.09527 -1.2662,0.37051 -1.35677,1.02978l-30.41235,222.11445c-0.09027,0.65927 0.3708,1.26679 1.02978,1.35677c0.05558,0.00765 0.11056,0.01117 0.16496,0.01117z" id="Path 1"/><path d="M1246.53214,693.92231c0.66515,0 1.20445,-0.5393 1.20445,-1.20445v-222.35381c0,-0.66515 -0.5393,-1.20445 -1.20445,-1.20445c-0.66515,0 -1.20445,0.5393 -1.20445,1.20445v222.35381c0,0.66515 0.5393,1.20445 1.20445,1.20445z" id="Path 1"/><path d="M1093.86848,693.03838c0.51195,0 0.98685,-0.32934 1.14858,-0.84335l71.96585,-228.73893c0.19966,-0.63457 -0.15291,-1.3109 -0.78748,-1.51085c-0.63428,-0.19878 -1.3109,0.1535 -1.51027,0.78748l-71.96585,228.73893c-0.19966,0.63457 0.15291,1.3109 0.78748,1.51085c0.12027,0.03764 0.24201,0.05587 0.36169,0.05587z" id="Path 1"/><path d="M1115.85027,693.32009c0.53783,0 1.02772,-0.36228 1.16652,-0.90745l49.98465,-201.87818c0.16379,-0.64457 -0.22583,-1.30031 -0.8704,-1.46439c-0.64663,-0.16291 -1.30031,0.22583 -1.46439,0.8704l-49.98465,201.87818c-0.16379,0.64457 0.22583,1.30031 0.8704,1.46439c0.09968,0.02529 0.19966,0.03705 0.29788,0.03705z" id="Path 1"/><path d="M1246.53214,473.90626l-83.40811,-1.2827l-15.35673,87.62369h97.56039z" id="Path 1"/></g><path d="M1214.48216,532.51265c0,0 14.50555,35.98086 -12.31953,44.1872c-26.82508,8.20634 -65.48415,19.80036 -65.48415,19.80036l44.44675,43.01876l-21.91265,14.003c0,0 -80.83321,-55.36682 -80.83321,-68.61576c0,-13.24894 66.24471,-47.57575 66.24471,-47.57575l36.50114,-13.0403l33.35692,8.2225z" id="Path 1" fill="#2f2e41"/><path d="M1130.04268,524.29015c0,0 -74.46633,5.46785 -80.07766,19.94356c-5.61133,14.47571 -16.81239,89.31063 -16.81239,89.31063l39.14121,6.94335l11.67901,-63.78784l107.15462,-38.13268z" id="Path 1" fill="#2f2e41"/><path d="M1090.30932,442.0602l19.6633,-24.03857l21.71768,14.24444c0,0 81.84702,53.17446 85.23081,103.07021c0,0 -32.92988,31.67535 -75.18545,-8.10821l-30.62017,-8.12086l-20.80616,-77.04701z" id="Path 1" fill="#cccccc"/><g id="Group 1"><path d="M1002.97927,542.04214c-6.53154,2.45854 -13.09464,1.08213 -14.65916,-3.0743c-1.56452,-4.15643 2.462,-9.51888 8.99354,-11.97742c2.85908,-1.07619 5.72415,-1.41739 8.17343,-1.11242l27.80666,-10.07032l4.44783,13.14957l-27.88402,8.53169c-1.64027,1.84431 -4.01921,3.47701 -6.87829,4.5532z" id="Path 1" fill="#a0616a"/><path d="M1096.87286,444.14832l-6.56354,-2.08812l-18.77146,57.35301l-64.1884,23.54647l4.0989,15.80973l72.99324,-17.41898l28.17328,-27.47357z" id="Path 1" fill="#cccccc"/></g><circle cx="1084.88003" cy="401.66812" r="23.28526" id="Shape 1" fill="#a0616a"/><path d="M1107.94212,384.11985c0,0 -6.05734,-19.55903 -26.14608,-16.9465c0,0 -4.06097,3.96011 -7.49138,3.34395c-3.43041,-0.61616 -9.86236,9.61742 -11.58117,9.59581c-1.71881,-0.02161 -4.60509,1.66117 -1.74042,1.69719c2.86467,0.03602 5.98646,-1.35729 1.99447,0.88462c-3.99199,2.24191 -6.64278,4.21416 -3.79252,5.39605c2.85026,1.18189 3.39515,-1.9629 -0.30448,1.42873c-3.69963,3.39163 -1.45035,1.41433 0.24684,3.15474c1.69719,1.74041 -0.97134,11.22495 -0.97134,11.22495c0,0 -0.22496,-7.22881 9.51493,-7.10634c9.73989,0.12247 16.01336,2.49345 18.91405,-0.3352c2.90069,-2.82865 7.15926,1.53838 9.83869,4.28604c2.67943,2.74766 4.97837,2.20355 4.97837,2.20355l-2.45743,13.14868c0,0 10.03691,-0.71303 10.67494,-5.88254c0.63803,-5.16951 -1.87199,-10.62451 -0.13158,-12.3217c1.74041,-1.69719 -1.5459,-13.77205 -1.5459,-13.77205z" id="Path 1" fill="#2f2e41"/><g id="Group 1"><circle cx="991.07171" cy="482.41711" r="54.9801" id="Shape 1" fill="#2cc8b3"/><g id="Group 1" fill="#ffffff"><rect x="894.30014" y="641.21483" transform="rotate(-9.5708)" width="5.53371" height="31.57296" id="Shape 1"/><path d="M973.57037,501.86978l18.7593,-11.99182l21.65428,5.17756l-28.28345,-44.49342z" id="Path 1"/></g></g><g id="Group 1"><path d="M1007.24008,510.77078c-6.97892,0.00377 -12.63836,-3.59339 -12.64076,-8.03452c-0.0024,-4.44113 5.65314,-8.04441 12.63206,-8.04819c3.05491,-0.00165 5.8569,0.68681 8.04235,1.83388l29.57187,0.355l-0.46213,13.87374l-29.10303,-1.8225c-2.18421,1.14943 -4.98545,1.84093 -8.04036,1.84258z" id="Path 1" fill="#a0616a"/><path d="M1119.64511,442.31687l0.00002,0.00003c14.28466,15.61382 16.03907,38.97154 4.24704,56.54399l-23.67959,21.66107l-75.92726,-7.2042l1.60125,-17.77338l53.66201,-2.88667l40.09651,-50.34084z" id="Path 1" fill="#cccccc"/></g></g></g></g></g></g></svg>